<?xml version="1.0" standalone="no"?>
<!DOCTYPE svg PUBLIC "-//W3C//DTD SVG 20010904//EN"
 "http://www.w3.org/TR/2001/REC-SVG-20010904/DTD/svg10.dtd">
<svg version="1.0" xmlns="http://www.w3.org/2000/svg"
 width="512.000000pt" height="512.000000pt" viewBox="0 0 512.000000 512.000000"
 preserveAspectRatio="xMidYMid meet">
<metadata>
Created by potrace 1.14, written by Peter Selinger 2001-2017
</metadata>
<g transform="translate(0.000000,512.000000) scale(0.100000,-0.100000)"
fill="#000000" stroke="none">
<path d="M1485 4213 c-47 -12 -60 -51 -27 -75 11 -7 24 -23 30 -35 7 -12 21
-25 32 -28 11 -3 20 -13 20 -20 0 -8 11 -22 25 -31 14 -9 25 -21 25 -27 0 -11
175 -215 202 -235 24 -18 23 -62 -2 -87 -47 -48 -114 -123 -139 -155 -14 -19
-34 -41 -43 -48 -10 -7 -18 -19 -18 -26 0 -8 -11 -21 -25 -30 -14 -9 -25 -23
-25 -31 0 -9 -11 -20 -25 -25 -14 -5 -25 -16 -25 -24 0 -8 -12 -23 -26 -34
-21 -15 -26 -24 -21 -44 7 -27 30 -38 83 -38 30 0 55 15 145 88 23 17 45 32
49 32 5 0 11 9 15 19 3 10 17 22 30 25 13 3 27 15 30 26 3 11 12 20 18 20 7 0
24 12 38 28 49 51 89 82 109 82 18 0 69 -39 113 -87 11 -13 26 -23 33 -23 7 0
16 -9 19 -20 3 -11 10 -20 16 -20 5 0 21 -11 36 -25 16 -14 64 -52 107 -85 86
-65 129 -76 174 -44 29 20 28 39 -3 66 -14 12 -25 28 -25 35 0 7 -11 18 -25
23 -14 5 -25 16 -25 25 0 8 -11 22 -25 31 -14 9 -25 21 -25 26 0 11 -104 134
-152 180 -15 15 -28 31 -28 37 0 5 -9 13 -20 16 -29 9 -27 65 3 92 20 19 58
61 161 179 20 23 36 46 36 52 0 5 11 17 25 26 14 9 25 22 25 30 0 7 11 18 25
24 14 6 25 18 25 26 0 7 11 21 25 30 52 34 22 79 -53 80 -39 1 -55 -5 -95 -36
-26 -21 -55 -44 -63 -52 -8 -8 -23 -17 -34 -21 -10 -3 -22 -14 -25 -25 -3 -10
-17 -21 -30 -24 -13 -3 -27 -15 -30 -26 -3 -11 -12 -20 -18 -20 -7 0 -37 -25
-67 -55 -38 -39 -62 -55 -80 -55 -18 0 -42 16 -80 55 -30 30 -60 55 -66 55 -7
0 -19 11 -28 25 -9 14 -23 25 -31 25 -7 0 -17 9 -20 20 -3 11 -10 20 -14 20
-4 0 -40 25 -80 56 -71 54 -111 69 -156 57z"/>
<path d="M2707 4213 c-15 -2 -31 -12 -36 -21 -10 -19 3 -62 19 -62 6 0 15 -12
20 -26 6 -14 19 -28 30 -31 11 -3 20 -9 20 -13 0 -5 15 -26 33 -48 17 -22 46
-57 62 -78 17 -21 53 -60 81 -88 27 -28 53 -59 57 -69 3 -9 13 -17 21 -17 34
0 30 -74 -5 -85 -10 -4 -19 -11 -19 -17 0 -6 -22 -34 -50 -62 -27 -28 -68 -73
-90 -101 -90 -110 -93 -114 -157 -179 -28 -29 -30 -72 -4 -86 37 -19 91 -12
127 18 18 15 51 41 73 57 23 17 54 42 71 58 16 15 34 27 39 27 5 0 12 9 16 19
3 10 17 22 30 25 14 4 25 13 25 21 0 8 14 21 30 30 17 9 30 22 30 29 0 15 21
26 51 26 10 0 58 -36 106 -80 49 -44 92 -80 96 -80 5 0 21 -12 36 -27 29 -29
58 -53 126 -105 34 -25 47 -29 82 -25 24 2 50 10 58 17 19 16 19 49 0 57 -9 3
-22 18 -31 34 -8 16 -21 29 -29 29 -7 0 -17 9 -20 20 -4 11 -17 28 -31 36 -13
9 -24 22 -24 29 0 7 -11 20 -25 29 -14 9 -25 22 -25 29 0 6 -38 53 -85 102
-91 97 -103 126 -64 161 12 10 53 55 91 99 38 44 80 92 94 108 13 15 24 31 24
36 0 6 9 13 20 16 11 3 20 12 20 18 0 7 12 25 28 40 15 15 37 37 50 50 43 46
21 77 -55 79 -42 1 -56 -4 -98 -37 -28 -20 -54 -44 -58 -51 -4 -8 -14 -14 -22
-14 -8 0 -22 -11 -31 -25 -9 -14 -22 -25 -30 -25 -7 0 -21 -11 -30 -25 -9 -14
-21 -25 -27 -25 -6 0 -38 -27 -72 -59 -52 -50 -65 -58 -89 -54 -16 3 -32 16
-38 29 -6 13 -14 24 -18 24 -4 0 -21 14 -38 30 -18 17 -36 30 -41 30 -5 0 -13
9 -16 20 -3 11 -12 20 -20 20 -7 0 -22 11 -33 25 -11 14 -23 25 -27 25 -4 0
-25 16 -48 35 -22 19 -44 35 -48 35 -5 0 -19 11 -33 25 -24 24 -39 27 -99 18z"/>
<path d="M2465 1879 c-38 -3 -88 -13 -110 -22 -22 -9 -61 -16 -87 -17 -34 0
-54 -6 -68 -20 -11 -11 -38 -24 -61 -29 -22 -5 -51 -18 -62 -29 -12 -11 -35
-24 -50 -28 -16 -3 -33 -17 -39 -30 -6 -13 -19 -24 -28 -24 -10 0 -23 -7 -31
-16 -7 -8 -30 -24 -50 -35 -21 -10 -42 -25 -46 -32 -4 -8 -18 -19 -30 -26 -12
-6 -25 -20 -28 -31 -3 -11 -11 -20 -17 -20 -9 0 -115 -107 -166 -168 -65 -78
-92 -115 -92 -127 0 -7 -11 -20 -25 -29 -14 -9 -25 -22 -25 -29 0 -8 -11 -24
-24 -37 -14 -12 -28 -35 -31 -51 -4 -16 -15 -34 -26 -39 -11 -7 -21 -26 -25
-50 -4 -22 -16 -47 -30 -59 -16 -14 -24 -32 -24 -53 0 -21 -9 -41 -26 -59 -24
-25 -27 -37 -32 -123 -6 -124 3 -147 71 -176 58 -25 120 -23 147 7 9 10 32 63
49 118 18 55 41 112 51 126 10 15 26 44 35 65 9 21 24 48 34 59 10 11 33 46
51 78 18 33 44 72 59 87 14 15 49 54 76 86 105 123 231 232 320 276 22 11 49
29 60 39 24 22 135 79 153 79 8 0 26 8 40 18 48 34 108 41 249 32 100 -6 140
-13 170 -28 21 -11 58 -27 83 -36 25 -9 67 -31 94 -49 27 -17 77 -49 110 -70
104 -66 183 -137 291 -261 28 -32 62 -71 76 -86 15 -15 41 -54 59 -87 18 -32
41 -67 51 -78 10 -11 27 -40 39 -65 11 -25 29 -61 40 -80 10 -19 31 -73 45
-120 32 -103 57 -130 118 -130 23 0 60 9 83 19 57 26 68 58 62 177 -5 86 -8
98 -32 123 -17 17 -26 38 -26 59 0 20 -9 40 -24 54 -13 13 -26 37 -29 55 -4
17 -18 43 -32 57 -14 14 -25 34 -25 44 0 10 -11 29 -25 42 -14 13 -25 29 -25
37 0 7 -11 20 -25 29 -14 9 -25 22 -25 30 0 7 -13 29 -30 47 -16 19 -30 40
-30 46 0 6 -11 18 -25 27 -14 9 -25 21 -25 26 0 5 -33 41 -72 79 -40 38 -76
72 -80 77 -60 63 -143 128 -195 151 -12 6 -26 19 -32 29 -6 11 -23 23 -38 26
-14 4 -40 18 -56 32 -16 13 -39 24 -51 24 -12 0 -37 11 -56 25 -26 19 -46 25
-87 25 -32 0 -72 8 -96 19 -47 21 -219 31 -342 20z"/>
</g>
</svg>
